<svg xmlns="http://www.w3.org/2000/svg" xmlns:xlink="http://www.w3.org/1999/xlink" version="1.1" x="0px" y="0px" viewBox="0 0 100 125" enable-background="new 0 0 100 100" xml:space="preserve"><g><rect x="-192" fill="none" width="193" height="99"/><rect x="1" fill="none" width="98" height="99"/><rect x="-192" y="-36" fill="none" width="193" height="36"/><rect x="1" y="-36" fill="none" width="98" height="36"/></g><g><g><path fill-rule="evenodd" clip-rule="evenodd" d="M64.56,48.196c0,0,1.04,1.781,0,3.787c-1.039,2.002-1.782,4.89-0.741,7.678    c1.038,2.787,7.57,14.217,8.164,22.68c1.039,0.891,4.749,3.71,3.71,5.789c0,0-5.045,3.118-11.133,0.741    c0-2.671-0.807-2.3-0.148-3.71c0.658-1.412-2.524-11.729-7.274-14.103c0,0-1.728,4.227-1.482,6.087    c0.243,1.86,3.301,3.528,3.117,5.342c-0.188,1.815-9.576,3.247-11.655,1.271c-0.562-4.528,1.633-17.414,2.08-18.6    c0,0-5.419,3.227-15.068,3.822c-3.882,1.309-1.634,10.092-0.594,12.17c1.038,2.08,3.71,3.164,3.71,3.164s2.447,4.556-5.308,4.704    c-7.756,0.149-5.826-1.837-6.568-4.704c-0.743-2.864-1.781-11.772-2.82-11.772c-1.039,0-1.039,5.789-1.039,5.789l2.227,4.009    c0,0-0.446,2.17-8.908,1.975c-4.565-1.295-2.522-3.164-2.819-4.2c0,0-2.375-0.15-3.117-1.339c-0.743-1.186,0.594-5.344,0-8.312    c-0.593-2.97-6.906-18.89,4.82-30.709c11.729-11.817,33.331-10.263,33.627-10.56C47.637,28.898,64.56,48.196,64.56,48.196z"/><path fill="#000000" d="M24.346,72.966l-0.417-0.405c-0.758-0.734-18.473-18.108-13.178-29.848    c6.181-13.701,30.94-14.097,33.744-14.097c1.089,0,2.028,0.039,2.574,0.107l0.411,0.051l0.044,0.413    c0.114,1.072,0.376,4.626-1.029,5.326c-0.364,0.211-1.152,2.337-0.589,3.625c0.665,1.517,1.829,2.512,2.856,3.391    c0.414,0.354,0.806,0.691,1.141,1.034c0.75,0.766,12.068,14.783,12.466,20.774c0.142,0.515-0.017,0.881-0.177,1.101    c-0.4,0.546-1.271,0.813-2.657,0.813c-1.719,0-4.109-0.42-6.396-1.125c-1.302-0.399-2.523-1.103-3.504-1.667    c-0.598-0.345-1.113-0.643-1.466-0.766c-0.154-0.054-0.366-0.082-0.628-0.082c-1.481,0-4.153,0.869-6.736,1.707    c-2.586,0.841-5.26,1.708-6.986,1.79c-2.849,0.135-7.544,5.386-9.113,7.398L24.346,72.966z M44.495,29.662    c-2.734,0-26.88,0.379-32.79,13.481c-4.57,10.13,9.903,25.565,12.545,28.26c1.364-1.666,6.13-7.179,9.519-7.338    c1.584-0.076,4.191-0.922,6.712-1.742c3.434-1.114,6.613-2.115,8.032-1.616c0.443,0.156,0.999,0.475,1.643,0.846    c0.934,0.538,2.1,1.208,3.291,1.574c2.191,0.676,4.468,1.079,6.088,1.079c1.13,0,1.683-0.209,1.813-0.386    c0.016-0.023,0.055-0.075,0.004-0.236l-0.023-0.129c-0.285-5.279-11.061-19.027-12.173-20.162    c-0.314-0.321-0.684-0.637-1.073-0.97c-1.113-0.951-2.373-2.03-3.134-3.766c-0.704-1.606,0.064-4.471,1.079-4.979    c0.47-0.234,0.626-2.133,0.496-3.857C46.007,29.683,45.296,29.662,44.495,29.662z"/><path d="M83.242,8.841c-8.016,0.891-6.903,12.469-6.013,15.81c0.892,3.338,0.892,2.226-2.228,2.894    c-3.116,0.67-3.562-0.668-6.455-2.003c-2.895-1.337-3.341-0.445-5.568-0.445c-2.226,0-3.645-3.263-6.986-1.038    C52.653,26.287,52,22.2,47,28.658v4.899c0,0-4.592,4.231,0.084,8.017c4.677,3.784,8.949,8.46,14.964,8.015    c6.011-0.445,3.136-1.335,3.136-1.335s5.133,0,6.469-7.794c0.191-0.794,0.668-1.272,1.277-1.564    c0.417,0.262,0.977,0.494,1.717,0.666c3.859,0.895,9.422-3.261,11.43-4.899c1.632-1.333-0.447-4.004-2.08-2.373    c0,0-0.646,0.249-1.604,0.61c0.763-1.842,1.039-4.194,0.178-7.135c-2.672-9.13-2.113-12.804,1.227-11.914    c3.342,0.893,0.782,2.896,5.902,5.124c0,0,0.892,0.478,2.674-1.711C94.151,15.076,91.26,7.951,83.242,8.841z M65.972,37.217    c-1.421,0-2.576-0.993-2.576-2.216c0-0.036,0.006-0.069,0.008-0.104c0.435,0.289,0.976,0.46,1.566,0.46    c1.382,0,2.508-0.938,2.569-2.111c0.612,0.404,1.009,1.039,1.009,1.756C68.548,36.224,67.394,37.217,65.972,37.217z     M68.107,32.341c-1.482,0.591-1.775-0.739-4.439,1.069c-3.029,2.057-2.068,5.291-2.068,5.291s-1.363-2.407,0.114-5.291    c1.478-2.884,2.547-3.288,6.246-2.994C67.96,30.416,69.586,31.75,68.107,32.341z"/><path fill="#000000" d="M47.085,30.812c-0.005-0.537-0.034-1.003-0.056-1.286c-0.696,0.835-1.423,1.641-3.125,1.472    c0.179,0.962,1.288,0.997,1.6,1.828c-0.078,1.14-0.282,2.156-0.242,3.414c0.005,0.158-0.001,0.304,0.013,0.47    c-0.021,0.014-0.045,0.026-0.066,0.039c-1.422,0.905-3.003,1.649-5.189,1.789c0.96,2.13-0.06,3.729-0.687,5.485    c-1.645,0.434-4.529,1.17-5.255,0c0.81-0.594,3.088-0.192,4.342-0.915c1.149-1.332,1.759-3.631,0.914-5.712    c2.16,0.104,3.077-1.037,4.57-1.599c-0.44-1.336,0.616-4.077-0.914-4.798c0.9-0.653,1.974-1.13,2.82-1.836    c-0.402-0.014-0.872-0.022-1.404-0.021c-1.071,0.67-2.511,0.803-3.667,0.125c-0.511,0.031-1.049,0.073-1.598,0.121    c-1.98,5.997-6.725,10.623-11.688,12.58c-5.384,2.123-10.844,1.447-15.362-0.639c-0.314,0.515-0.609,1.042-0.862,1.601    c-0.218,0.482-0.38,0.983-0.519,1.493c1.028-0.344,1.457-1.287,2.574-1.541c0.454,1.733-1.04,2.54-2.816,2.653    c-0.04,0.246-0.081,0.491-0.105,0.741c1.089-0.02,2.106-0.2,2.921-0.652c-0.106,1.935,1.66,1.998,2.058,3.427    c2.413,0.128,3.814-0.756,5.026-1.828c1.331,0.651,1.889,2.073,3.428,2.514c1.819-0.77,3.15-2.03,4.112-3.655    c2.122,1.709,5.148,1.624,5.942-1.142c0.758,1.752-1.611,2.346-1.828,3.884c-1.456-0.373-3.538-0.119-3.885-1.6    c-0.762,0.48-2.911,3.809-3.884,3.886c-0.965,0.076-2.959-2.557-3.885-2.971c-1.211,0.997-2.294,2.122-4.341,2.285    c-1.4-1.037-2.982-1.893-3.427-3.884c-0.867,0.492-1.53,0.639-2.286,0.647c-0.009,0.293-0.007,0.589,0.002,0.889    c0.591,0.027,1.157-0.043,1.598-0.394c0.65,1.711,2.65,2.071,3.199,3.885c1.661-0.778,3.791-1.084,5.255-2.058    c1.103,0.878,2.552,1.41,3.428,2.514c1.625-0.965,2.759-2.419,4.57-3.199c0.96,0.64,2.486,0.713,3.656,1.142    c0.874-1.642,2.271-2.755,2.971-4.57c1.566,0.707,2.88-0.346,4.57-0.229c0.488-1.91,2.248-3.381,1.599-5.711    c1.726-0.213,2.798-1.079,4.085-1.731c0.23-0.117,0.465-0.229,0.714-0.327c-0.148-1.243,0.179-2.362,0.316-3.36    c0.12-0.878,0.092-1.664-0.544-2.352C46.237,31.447,46.675,31.144,47.085,30.812z M24.252,44.022c0.312,0.292,0.312,1.078,0,1.37    c-0.729,0.196-0.706-0.359-1.142-0.456C23.153,44.293,23.508,43.963,24.252,44.022z M16.712,43.793    c0.4,0.209,0.794,0.425,0.685,1.144c-0.292,0.312-1.079,0.312-1.371,0C15.969,44.27,16.457,44.148,16.712,43.793z M14.655,44    c0.229,0,0.457,0,0.686,0c-0.548,1,0.395,2.245,1.142,3.208c2.225,0.017,1.732-2.576,3.885-2.632    C21.417,49.435,12.021,49,14.655,44z M24.024,48.821c-1.629-0.583-3.365-2.268-2.513-4.571c1.305,0.446,0.598,2.907,2.513,2.742    c1.729-0.467,1.204-2.536,1.829-3.656C28.994,44.85,25.614,47.94,24.024,48.821z M38.419,32.826c0.381,0,0.762,0,1.143,0    c0,0.38,0,0.762,0,1.142C38.73,34.417,37.97,33.657,38.419,32.826z M41.39,34.653c0.162-2.065-1.244-2.565-2.057-3.655    c1.794-2.358,4.953,1.088,3.657,4.113c-1.17,1.273-5.125,2.312-5.712-0.229C38.226,35,40.162,35.713,41.39,34.653z M34.307,38.081    c1.109-0.108,1.298,0.955,0.686,1.372C33.798,39.516,33.765,38.703,34.307,38.081z M29.507,42c0.229,0,0.458,0,0.686,0    C31.375,44,28.327,44,29.507,42z M31.565,46.536c-2.076-0.31-4.212-1.701-3.658-3.885c0.909,0.843,1.267,2.238,2.971,2.286    c1.214-1.045,0.187-3.067,0.229-3.885C33.437,40.743,33.779,45.757,31.565,46.536z M32.707,39.91    c0.917,0.051,2.32,1.448,4.114,1.37c0.636-1.403,0.204-3.705-1.144-3.885c1.792-3.446,4.658,2.631,2.515,4.799    C35.822,43.524,32.233,42.066,32.707,39.91z"/><path d="M64.042,25.788c0.966-0.306,1.924-0.683,2.858-1.111c-2.481-1.316-10.888-6.19-18.461,2.473    C52.6,28.405,58.75,27.458,64.042,25.788z"/><path fill="#000000" d="M27.907,40.595c3.989-1.75,7.969-5.808,9.772-11.068c-0.9,0.096-1.835,0.213-2.796,0.355    c-1.303,0.971-3.241,2.048-4.69,2.03c0.668-0.908,2.006-1.144,2.97-1.755c-1.311,0.229-2.653,0.953-3.999,1.283    C29.849,32.386,29.956,35,29.507,36c-1.065,0-2.133,0-3.198,0c-0.102-1-0.597-2.135-0.914-2.96c1.093,0.28,1.32,1.201,2.741,1.15    c0.723-0.926,0.058-2.008-0.303-2.737c-2.413,0.662-4.793,1.474-7.009,2.552c0.917,0.456,0.823,1.9,1.829,2.265    c0.999-0.505,1.972-1.808,1.37-3.208c2.337,0.582,0.546,3.883-0.229,4.792c-2.847,0.177-3.536-1.09-2.97-3.884    c-0.313,0.152-0.634,0.293-0.939,0.456c0.377,1.892-1.193,3.087-2.488,3.664c-0.604-0.121-1.105-0.538-1.457-1.087    c-0.202,0.164-0.406,0.325-0.601,0.495c0.473,0.637,0.989,1.228,1.602,1.726c0.85-0.367,1.537-0.9,2.285-1.372    c0.36,0.976-1.464,1.73-2.285,2.285c-0.943-0.484-1.699-1.155-2.198-2.082c-0.26,0.25-0.509,0.506-0.751,0.768    c0.027,0.1,0.031,0.221-0.021,0.4c-0.118,0.126-0.321,0.187-0.534,0.211c-0.248,0.295-0.479,0.602-0.704,0.914    C17.193,42.518,22.573,42.934,27.907,40.595z M27.452,32.826c-0.733,0.2-0.474-0.593-0.914-0.686    C26.803,31.529,27.75,32.119,27.452,32.826z M23.11,34.653c-0.925,0.255-1.13-0.702-0.686-1.143    C23.139,33.406,23.155,34,23.11,34.653z M28.365,39.224c-0.292,0.312-1.078,0.312-1.37,0c-0.053-0.815,0.328-1.195,1.141-1.143    C28.042,38.631,28.554,38.578,28.365,39.224z M32.707,32.369c0.306,0,0.61,0,0.914,0c-0.037,0.265,0.051,0.406,0.229,0.457    c-0.043,0.644-0.397,0.972-1.143,0.913C32.395,33.448,32.395,32.66,32.707,32.369z M29.736,36.023    c0.941-0.505,0.391-2.503,0.914-3.427c1.034,0.896-0.042,3.189-0.458,4.113c-1.699,0.1-3.172-0.024-4.34-0.457    C26.371,35.355,28.297,36.385,29.736,36.023z M24.024,39.224c0.694-0.752,1.044-1.85,1.6-2.742    c0.687,1.38-0.589,2.759-1.372,3.429c-2.14-0.07-3.126-1.293-4.569-2.059C20.589,37.14,22.421,39.142,24.024,39.224z     M20.596,40.823c-0.604-0.004-1.345,0.127-1.371-0.458c0.071-0.855,0.764-0.927,1.371-0.684    C20.596,40.061,20.596,40.443,20.596,40.823z"/><path d="M68.169,25.777c-0.391,0.223-0.705-0.488-0.623-0.783c-0.814-0.149-0.91,0.755-0.752,1.274    c-0.734,0.259-0.221-0.704-0.673-0.893c-1.041,0.221-0.418,1.064-0.924,1.485c-0.366-0.129-0.159-0.448-0.353-0.772    c-0.178-0.34-0.932,0.114-1.042,0.341c0.075,0.289,0.311,0.148,0.361,0.503c-0.157,0.227-0.454,0.643-0.835,0.511    c-0.349-0.279-0.161-0.513-0.128-0.874c-0.142-0.277-0.472-0.05-0.766,0.081c-0.292,0.257,0.122,0.779-0.039,1.083    c-0.347,0.109-0.632,0.057-0.863-0.14c-0.306-0.357,0.334-0.363,0.08-0.702c-0.634-0.156-1.614,0.363-1.074,1.154    c-0.185,0.083-0.369,0.167-0.553,0.251c-0.165-0.307-0.226-0.574-0.08-0.762c-0.284-0.221-0.622-0.295-1.084-0.041    c-0.354,0.263,0.327,0.916-0.151,1.133c-0.265,0.219-0.321-0.118-0.54-0.019c-0.292-0.385,0.09-0.516,0.029-0.814    c-0.248-0.236-0.611-0.157-1.034,0.07c-0.325,0.306,0.116,0.899-0.422,1.125c-0.438-0.039-0.639-0.405-0.511-0.833    c-0.136-0.212-0.396-0.086-0.595-0.131c-0.51,0.265,0.008,0.919-0.691,1.115c-0.566-0.377,0.004-0.681-0.119-1.145    c-0.209-0.175-0.532-0.045-0.875,0.13c-0.381,0.163,0.243,0.703-0.14,0.864c-0.459,0.31-0.68-0.524-0.462-0.723    c-0.19-0.305-0.618,0.021-0.862-0.14c-0.346,0.334-0.304,1.245-1.066,0.883c-0.065-0.3,0.09-0.516,0.193-0.753    c-0.183-0.33-0.55-0.167-0.865-0.14c-0.495,0.211-0.08,0.763-0.632,0.954c-0.105-0.128-0.272-0.087-0.372-0.231    c-0.195-0.379,0.231-0.525,0.302-0.804c-0.236-0.269-0.604-0.178-0.914-0.251c-0.41,0.225-0.26,1.004-0.954,0.833    c-0.309-0.451,0.163-0.611,0.251-0.913c-0.063-0.118-0.145-0.186-0.231-0.238c-0.255,0.304-0.511,0.622-0.764,0.958    c0,0,0.857,1.679,2.538,2.521c1.68,0.837,7.136,0,7.136,0s4.198-3.5,8.256-2.521c4.058,0.98,7.695-0.49,7.695-0.49    s-1.697-1.598-4.841-2.731C68.269,25.43,68.342,25.649,68.169,25.777z"/><path fill="#000000" d="M66.9,24.677c-0.935,0.428-1.893,0.805-2.858,1.111c-5.292,1.67-11.442,2.617-15.603,1.362    c-0.092,0.106-0.186,0.206-0.278,0.316c0.086,0.053,0.168,0.121,0.231,0.238c-0.088,0.302-0.56,0.461-0.251,0.913    c0.693,0.17,0.544-0.609,0.954-0.833c0.309,0.073,0.678-0.018,0.914,0.251c-0.07,0.279-0.497,0.425-0.302,0.804    c0.099,0.144,0.266,0.103,0.372,0.231c0.552-0.191,0.137-0.743,0.632-0.954c0.315-0.027,0.682-0.19,0.865,0.14    c-0.104,0.238-0.259,0.453-0.193,0.753c0.763,0.361,0.721-0.549,1.066-0.883c0.244,0.16,0.672-0.165,0.862,0.14    c-0.218,0.199,0.003,1.033,0.462,0.723c0.383-0.161-0.241-0.701,0.14-0.864c0.343-0.176,0.666-0.305,0.875-0.13    c0.123,0.464-0.447,0.768,0.119,1.145c0.699-0.196,0.182-0.85,0.691-1.115c0.198,0.045,0.459-0.082,0.595,0.131    c-0.128,0.428,0.072,0.794,0.511,0.833c0.538-0.225,0.097-0.819,0.422-1.125c0.423-0.227,0.786-0.306,1.034-0.07    c0.061,0.298-0.321,0.429-0.029,0.814c0.219-0.099,0.275,0.238,0.54,0.019c0.479-0.217-0.203-0.87,0.151-1.133    c0.462-0.254,0.8-0.18,1.084,0.041c-0.146,0.188-0.085,0.455,0.08,0.762c0.184-0.084,0.368-0.168,0.553-0.251    c-0.54-0.791,0.44-1.31,1.074-1.154c0.254,0.339-0.386,0.345-0.08,0.702c0.231,0.197,0.517,0.25,0.863,0.14    c0.161-0.304-0.253-0.826,0.039-1.083c0.294-0.131,0.624-0.357,0.766-0.081c-0.033,0.361-0.221,0.595,0.128,0.874    c0.381,0.132,0.678-0.285,0.835-0.511c-0.051-0.354-0.286-0.214-0.361-0.503c0.11-0.227,0.864-0.681,1.042-0.341    c0.193,0.324-0.014,0.643,0.353,0.772c0.506-0.42-0.117-1.264,0.924-1.485c0.452,0.189-0.062,1.152,0.673,0.893    c-0.158-0.519-0.062-1.424,0.752-1.274c-0.082,0.295,0.232,1.006,0.623,0.783c0.173-0.128,0.1-0.348,0.013-0.574    c-0.229-0.083-0.449-0.17-0.695-0.248C67.364,24.917,67.166,24.816,66.9,24.677z"/></g></g><text x="0" y="115" fill="#000000" font-size="5px" font-weight="bold" font-family="'Helvetica Neue', Helvetica, Arial-Unicode, Arial, Sans-serif">Created by icons.design</text><text x="0" y="120" fill="#000000" font-size="5px" font-weight="bold" font-family="'Helvetica Neue', Helvetica, Arial-Unicode, Arial, Sans-serif">from the Noun Project</text></svg>