<svg xmlns="http://www.w3.org/2000/svg" xmlns:xlink="http://www.w3.org/1999/xlink" version="1.1" x="0px" y="0px" viewBox="0 0 100 125" enable-background="new 0 0 100 100" xml:space="preserve"><g><g><path d="M26.295,81h0.004l0.111,0.165c6.059,2.727,11.781,5.501,13.189,8.344c0.146,0.297,0.236,0.686,0.293,0.965    c0.69-0.645,1.442-1.608,1.999-3.182c0.026-0.07,0.05-0.108,0.071-0.177c0.033-0.094,0.062-0.188,0.088-0.285    c0.264-0.889,0.465-1.929,0.562-3.17c0.002-0.039,0.008-0.078,0.012-0.125c0.02-0.309,0.041-0.627,0.052-0.965    c0-0.033-0.008-0.066-0.008-0.101c-0.155-3.481-7.005-10.692-8.403-12.129c-4.063-4.165-9.443-8.669-11.41-8.986    c-0.188-0.027-0.387-0.041-0.595-0.044c-10.802,0.333-11.653,9.046-9.951,11.754c0.142,0.236,0.321,0.472,0.516,0.709    c0.539,0.582,1.187,1.17,1.951,1.762c2.821,2.078,7.265,3.676,11.608,5.624L26.295,81z"/><path d="M80.965,44.499c-8.961-10.386-22.319-9.552-26.93-23.119c-1.155-4.655,2.434-5.423,3.475-7.517    c0.212-0.432,0.432-0.876,0.645-1.323c0.58-1.253,0.643-2.253,0.18-2.977c-0.478-0.745-1.749-3.738-8.264-0.168    c-2.332,2.085-7.394,2.969-4.654,17.276c0.354,1.849,2.416,3.774,4.994,5.81c1.51,1.309,3.512,2.83,6.179,4.555    c2.646,1.938,5.287,3.993,7.161,6.084c0.396,0.468,0.764,0.932,1.088,1.401c0.469,0.683,0.841,1.349,1.138,1.986    c0.321,0.871,0.584,2.562,0.398,4.044c-0.451,0.915-1.427,1.409-2.803,1.416c-0.75,0-2.438,0.112-2.611-0.007    c-0.017,0.054-0.046,0.101-0.079,0.145c-1.231-0.879-2.866-1.984-4.654-3.041c-3.564-2.101-6.617-3.354-8.822-3.618    c-2.45-0.289-3.447-0.453-3.949-0.538c-0.043,0-0.083-0.007-0.127-0.007c-4.386,0-8.743,1.094-10.84,2.72    c-1.614,1.249-3.416,3.035-4.943,5.128c0.342-0.083,0.748-0.107,1.18-0.116c-0.505,0.074-1.016,0.133-1.52,0.211    c-1.527,1.855-2.721,3.958-3.107,6.141c-0.002,0-0.007,0.005-0.012,0.005c0.164-0.016,0.328-0.024,0.488-0.03    c-0.158,0.039-0.32,0.076-0.465,0.11c3.078,0.976,8.894,6.346,11.996,9.525c1.144,1.171,3.355,3.525,5.324,6.092    c2.535,3.305,3.795,5.858,3.744,7.586c-0.116,3.89-1.088,6.345-2.162,7.896c1.729,0.078,4.583,0.47,6.498,0.881l0.043,0.013    c2.322,0.498,4.728,1.017,6.6,0.951c2.295-0.078,4.265-2.851,4.704-3.518c-0.589-0.697-1.118-1.52-1.139-2.266    c-0.008-0.423,0.145-0.775,0.479-1.079l1.226-0.423c0.69-0.237,12.824-1.537,19.01-12.089    C86.615,62.086,84.702,48.832,80.965,44.499z M38.828,64.166c0-6.31,4.315-8.558,8.568-8.632    c6.813-0.114,13.683,6.409,10.268,5.824c-0.481-0.08-3.764-4.363-10.707-2.547C39.619,60.728,38.828,64.166,38.828,64.166z     M48.856,68.611c-2.95,0-5.343-2.39-5.343-5.346s0.861,0.197,3.819,0.197c2.954,0,6.877-3.153,6.877-0.197    S51.818,68.611,48.856,68.611z"/></g></g><text x="0" y="115" fill="#000000" font-size="5px" font-weight="bold" font-family="'Helvetica Neue', Helvetica, Arial-Unicode, Arial, Sans-serif">Created by icons.design</text><text x="0" y="120" fill="#000000" font-size="5px" font-weight="bold" font-family="'Helvetica Neue', Helvetica, Arial-Unicode, Arial, Sans-serif">from the Noun Project</text></svg>