<svg xmlns="http://www.w3.org/2000/svg" xmlns:xlink="http://www.w3.org/1999/xlink" version="1.1" x="0px" y="0px" viewBox="0 0 95 118.75" enable-background="new 0 0 95 95" xml:space="preserve"><rect x="8.616" y="43.731" width="79.406" height="2.657"/><rect x="8.616" y="51.133" width="79.406" height="2.657"/><rect x="8.616" y="58.535" width="79.406" height="2.657"/><g><path d="M8.77,17.25V39h79.1V17.25H8.77z M26.021,36.419l-5.39-2.834l-5.39,2.834l1.029-6.002l-4.36-4.25l6.026-0.875l2.695-5.461   l2.695,5.461l6.026,0.875l-4.36,4.25L26.021,36.419z M53.708,36.419l-5.389-2.834l-5.39,2.834l1.029-6.002l-4.36-4.25l6.026-0.875   l2.695-5.461l2.695,5.461l6.025,0.875l-4.359,4.25L53.708,36.419z M81.396,36.419l-5.389-2.834l-5.391,2.834l1.029-6.002   l-4.359-4.25l6.025-0.875l2.695-5.461l2.695,5.461l6.025,0.875l-4.359,4.25L81.396,36.419z"/></g><text x="0" y="110" fill="#000000" font-size="5px" font-weight="bold" font-family="'Helvetica Neue', Helvetica, Arial-Unicode, Arial, Sans-serif">Created by Lilit Kalachyan</text><text x="0" y="115" fill="#000000" font-size="5px" font-weight="bold" font-family="'Helvetica Neue', Helvetica, Arial-Unicode, Arial, Sans-serif">from the Noun Project</text></svg>